<svg xmlns="http://www.w3.org/2000/svg" id="a" viewBox="0 0 1843.2 1678.5"><defs><style>.st0{fill:#3c1d56}</style></defs><path d="M1819.1 572.8c-16.1-11.6-33.8-13.6-54.1-14l-434.2-9c-20.3-.4-35.7 9-37.5 29.7-1.2 14.2 10.9 33.6 30.2 33.9l450.3 8.7-112.9 85.2-233.1 171.3c-60.2 44.3-92.3 113.1-81.8 188 5.7 40.6 19.9 77.1 34.9 115.6l99 254.2c14.8 44.3 8.5 91.1-19.8 127.1-50 63.8-147 69-203.7 9-19.6-20.7-30.9-44.6-32.8-73.8-4-61.5 32.7-116.8 92-135 38.4-11.8 73.1-.7 77.4-37.9 1.5-13.1-6.8-32.3-23.7-33.1-42.5-2-84.5 8.8-121.5 32.1-89.4 56.3-119 172.8-63.2 262.2 37.5 60 105 92.7 174.2 91.4 68-1.2 132.7-35.8 168.9-95.6 30.8-50.8 34.9-111.1 17.7-167.7l-49.2-128.7-62.8-156.9c-11-27.4-19.5-55.1-20.9-84.5-2.1-43.1 16.2-82 51-107.7l266-196.1 83.7-64.5c13.2-10.2 21.7-24.3 27-40.2 7.9-24-.8-49.2-21.2-63.8Z" style="fill:#3c1d57"/><path d="M1299.3 1011.9c32.5-71.8 21.5-143.3-7.5-215.5l-169.5-422.3L992.5 48.3C981.3 20.2 952.2.5 923.4 0c-32.3-.6-58.1 21.7-69.5 51.1L673.4 517.6c-5.5 14.3-15.9 31.4-33.4 31.8l-551.8 9.9c-18.9.3-34.2.4-50.8 7.5-25.6 10.9-41 35.7-36.8 64 3.5 22.8 16.7 40.4 35.8 54.5l337.5 249.3 81.5 62.3c30.4 23.2 16.3 54.9 2.8 90.5l-78.6 208.1-91.2 239.4c-8.1 21.3-12.3 41.7-4 64.8 7.2 20.2 22.3 36.1 43.2 40.8 27.7 6.3 56.4.8 80.3-16.6l222.2-161.3 183.3-136c55.9-37.8 113.4-68.9 175.4-95.3l133.3-56.7c67.2-28.6 146.6-95.2 177.2-162.8Zm-165.6 82c-41 24.2-82.9 42.7-127.3 60.1l-123 55.1c-40 17.9-75.4 41.4-110.8 67.3l-89.8 65.7-325 234.9c-3.4 2.4-6.1 1.4-7.1.7-.9-.6-1.3-2.4-.6-4.2l27.8-78.9 149.6-395.8c6.5-17.2 9.6-32.7 12.7-50.3 7.3-41.6-7.9-80.4-41.5-107l-141-104.1L67 622.9l566.5-9.7c21-.4 38.8-5.5 56.9-13.8 19.8-10.3 35.4-25.2 43.8-46.9L919.8 72.9c1.1-2.9 3-3 4.5-2.4 1.4.5 3.3 1.5 4.6 4.7l155.3 390 139.1 344.2 21.4 62.5c25.3 96.7-28.7 173.3-111 221.9Z" class="st0"/><path d="M1068.6 793 956.7 524c-6.6-16-18.3-25.4-34.7-24.8-15.4.6-25 10.9-31.1 26.5L725.6 944.9l-91.5 227.7c-3.6 9-5.5 19.5-2.9 28.1 4.2 13.8 20.7 17.7 32.6 11l69.6-39.1 132.8-70.7 150.9-64.3 48.2-23.8c25.9-15.7 45.6-40.1 51.9-70.5 3.6-17.7-.3-35.9-7.3-52.4zm-41 164.1c-33.5 20-68.2 34.5-103.6 49.7l-101.9 43.9-77.8 38.3 180.8-459.3L977.6 757l65 157.1c6.1 16.4 1.5 33.1-14.9 43Z" class="st0"/></svg>